<svg width="64" height="64" viewBox="0 0 64 64" fill="none" xmlns="http://www.w3.org/2000/svg">
  <rect x="8" y="12" width="48" height="8" rx="2" fill="#3B82F6"/>
  <rect x="8" y="28" width="48" height="8" rx="2" fill="#3B82F6"/>
  <rect x="8" y="44" width="48" height="8" rx="2" fill="#3B82F6"/>
  
  <!-- Cable representation -->
  <circle cx="16" cy="16" r="2" fill="#10B981"/>
  <circle cx="24" cy="16" r="2" fill="#EF4444"/>
  <circle cx="32" cy="16" r="2" fill="#F59E0B"/>
  <circle cx="40" cy="16" r="2" fill="#8B5CF6"/>
  <circle cx="48" cy="16" r="2" fill="#06B6D4"/>
  
  <circle cx="16" cy="32" r="2" fill="#10B981"/>
  <circle cx="24" cy="32" r="2" fill="#EF4444"/>
  <circle cx="32" cy="32" r="2" fill="#F59E0B"/>
  <circle cx="40" cy="32" r="2" fill="#8B5CF6"/>
  <circle cx="48" cy="32" r="2" fill="#06B6D4"/>
  
  <circle cx="16" cy="48" r="2" fill="#10B981"/>
  <circle cx="24" cy="48" r="2" fill="#EF4444"/>
  <circle cx="32" cy="48" r="2" fill="#F59E0B"/>
  <circle cx="40" cy="48" r="2" fill="#8B5CF6"/>
  <circle cx="48" cy="48" r="2" fill="#06B6D4"/>
  
  <!-- Mounting hooks -->
  <rect x="4" y="14" width="2" height="4" rx="1" fill="#6B7280"/>
  <rect x="58" y="14" width="2" height="4" rx="1" fill="#6B7280"/>
  <rect x="4" y="30" width="2" height="4" rx="1" fill="#6B7280"/>
  <rect x="58" y="30" width="2" height="4" rx="1" fill="#6B7280"/>
  <rect x="4" y="46" width="2" height="4" rx="1" fill="#6B7280"/>
  <rect x="58" y="46" width="2" height="4" rx="1" fill="#6B7280"/>
</svg> 