<svg width="64" height="64" viewBox="0 0 64 64" fill="none" xmlns="http://www.w3.org/2000/svg">
  <!-- Fan housing -->
  <rect x="8" y="16" width="48" height="32" rx="4" fill="#374151"/>
  <rect x="12" y="20" width="40" height="24" rx="2" fill="#1F2937"/>
  
  <!-- Fan blades -->
  <g transform="translate(32,32)">
    <circle cx="0" cy="0" r="12" fill="#6B7280" opacity="0.3"/>
    
    <!-- Blade 1 -->
    <ellipse cx="0" cy="-8" rx="2" ry="6" fill="#3B82F6" transform="rotate(0)"/>
    <!-- Blade 2 -->
    <ellipse cx="0" cy="-8" rx="2" ry="6" fill="#3B82F6" transform="rotate(60)"/>
    <!-- Blade 3 -->
    <ellipse cx="0" cy="-8" rx="2" ry="6" fill="#3B82F6" transform="rotate(120)"/>
    <!-- Blade 4 -->
    <ellipse cx="0" cy="-8" rx="2" ry="6" fill="#3B82F6" transform="rotate(180)"/>
    <!-- Blade 5 -->
    <ellipse cx="0" cy="-8" rx="2" ry="6" fill="#3B82F6" transform="rotate(240)"/>
    <!-- Blade 6 -->
    <ellipse cx="0" cy="-8" rx="2" ry="6" fill="#3B82F6" transform="rotate(300)"/>
    
    <!-- Center hub -->
    <circle cx="0" cy="0" r="3" fill="#6B7280"/>
    <circle cx="0" cy="0" r="1.5" fill="#374151"/>
  </g>
  
  <!-- Mounting screws -->
  <circle cx="14" cy="22" r="1.5" fill="#4B5563"/>
  <circle cx="50" cy="22" r="1.5" fill="#4B5563"/>
  <circle cx="14" cy="42" r="1.5" fill="#4B5563"/>
  <circle cx="50" cy="42" r="1.5" fill="#4B5563"/>
  
  <!-- Ventilation grilles -->
  <rect x="16" y="18" width="1" height="28" fill="#6B7280"/>
  <rect x="20" y="18" width="1" height="28" fill="#6B7280"/>
  <rect x="43" y="18" width="1" height="28" fill="#6B7280"/>
  <rect x="47" y="18" width="1" height="28" fill="#6B7280"/>
  
  <!-- Power connector -->
  <rect x="54" y="28" width="4" height="8" rx="1" fill="#DC2626"/>
  <rect x="55" y="30" width="2" height="1" fill="#B91C1C"/>
  <rect x="55" y="33" width="2" height="1" fill="#B91C1C"/>
  
  <!-- Status LED -->
  <circle cx="14" cy="32" r="2" fill="#10B981"/>
  <circle cx="14" cy="32" r="1" fill="#34D399"/>
</svg> 