<svg width="64" height="64" viewBox="0 0 64 64" fill="none" xmlns="http://www.w3.org/2000/svg">
  <!-- Rack posts -->
  <rect x="8" y="8" width="4" height="48" fill="#6B7280"/>
  <rect x="52" y="8" width="4" height="48" fill="#6B7280"/>
  
  <!-- Shelf 1 -->
  <rect x="12" y="16" width="40" height="3" fill="#3B82F6"/>
  <rect x="10" y="15" width="2" height="5" fill="#1E40AF"/>
  <rect x="52" y="15" width="2" height="5" fill="#1E40AF"/>
  
  <!-- Shelf 2 -->
  <rect x="12" y="28" width="40" height="3" fill="#3B82F6"/>
  <rect x="10" y="27" width="2" height="5" fill="#1E40AF"/>
  <rect x="52" y="27" width="2" height="5" fill="#1E40AF"/>
  
  <!-- Shelf 3 -->
  <rect x="12" y="40" width="40" height="3" fill="#3B82F6"/>
  <rect x="10" y="39" width="2" height="5" fill="#1E40AF"/>
  <rect x="52" y="39" width="2" height="5" fill="#1E40AF"/>
  
  <!-- Adjustment holes -->
  <circle cx="10" cy="12" r="1" fill="#374151"/>
  <circle cx="10" cy="20" r="1" fill="#374151"/>
  <circle cx="10" cy="24" r="1" fill="#374151"/>
  <circle cx="10" cy="32" r="1" fill="#374151"/>
  <circle cx="10" cy="36" r="1" fill="#374151"/>
  <circle cx="10" cy="44" r="1" fill="#374151"/>
  <circle cx="10" cy="48" r="1" fill="#374151"/>
  <circle cx="10" cy="52" r="1" fill="#374151"/>
  
  <circle cx="54" cy="12" r="1" fill="#374151"/>
  <circle cx="54" cy="20" r="1" fill="#374151"/>
  <circle cx="54" cy="24" r="1" fill="#374151"/>
  <circle cx="54" cy="32" r="1" fill="#374151"/>
  <circle cx="54" cy="36" r="1" fill="#374151"/>
  <circle cx="54" cy="44" r="1" fill="#374151"/>
  <circle cx="54" cy="48" r="1" fill="#374151"/>
  <circle cx="54" cy="52" r="1" fill="#374151"/>
  
  <!-- Items on shelves -->
  <rect x="16" y="13" width="6" height="3" fill="#10B981"/>
  <rect x="24" y="13" width="4" height="3" fill="#EF4444"/>
  <rect x="30" y="13" width="8" height="3" fill="#F59E0B"/>
  
  <rect x="18" y="25" width="10" height="3" fill="#8B5CF6"/>
  <rect x="32" y="25" width="6" height="3" fill="#06B6D4"/>
  
  <rect x="20" y="37" width="8" height="3" fill="#EC4899"/>
  <rect x="30" y="37" width="12" height="3" fill="#84CC16"/>
</svg> 